<?xml version="1.0" standalone="no"?>
<!DOCTYPE svg PUBLIC "-//W3C//DTD SVG 20010904//EN"
 "http://www.w3.org/TR/2001/REC-SVG-20010904/DTD/svg10.dtd">
<svg version="1.0" xmlns="http://www.w3.org/2000/svg"
 width="300.000000pt" height="399.000000pt" viewBox="0 0 300.000000 399.000000"
 preserveAspectRatio="xMidYMid meet">
<metadata>
Created by potrace 1.10, written by Peter Selinger 2001-2011
</metadata>
<g transform="translate(0.000000,399.000000) scale(0.100000,-0.100000)"
fill="#000000" stroke="none">
<path d="M1577 3970 c18 -4 39 -12 45 -17 7 -6 20 -10 28 -10 8 0 29 -4 45 -8
47 -12 17 10 -39 29 -27 9 -63 16 -80 15 l-31 -1 32 -8z"/>
<path d="M1215 3878 c-16 -13 -47 -40 -68 -61 -22 -22 -45 -36 -53 -33 -9 3
-14 -1 -14 -13 0 -15 -27 -57 -70 -108 -6 -7 -8 -13 -5 -13 3 0 -8 -13 -24
-29 -16 -16 -39 -48 -51 -72 -12 -24 -32 -57 -45 -74 -12 -16 -25 -40 -29 -52
-4 -12 -19 -32 -33 -43 -14 -11 -21 -20 -16 -20 14 0 4 -47 -13 -61 -8 -6 -14
-17 -14 -25 0 -7 -8 -20 -17 -30 -10 -9 -18 -22 -20 -28 -1 -6 -4 -18 -5 -26
-2 -8 -8 -22 -13 -30 -5 -8 -10 -17 -11 -20 -3 -15 -20 -46 -33 -62 -9 -10
-16 -22 -17 -26 0 -4 -4 -15 -8 -24 -4 -9 -9 -24 -10 -32 -1 -9 -16 -44 -34
-79 -17 -34 -39 -83 -49 -109 -10 -27 -21 -48 -25 -48 -4 0 -5 -7 -2 -15 4 -8
1 -15 -6 -15 -6 0 -8 -4 -5 -10 3 -5 3 -16 -2 -22 -4 -7 -9 -22 -10 -32 -2
-11 -10 -40 -19 -65 -9 -25 -18 -53 -20 -61 -22 -88 -27 -108 -29 -127 -5 -32
-29 -97 -39 -105 -6 -4 -6 -12 1 -20 6 -7 11 -20 11 -28 1 -25 9 -64 17 -85 4
-11 9 -26 11 -34 6 -18 -35 -142 -53 -159 -7 -7 -13 -22 -13 -33 0 -10 -4 -19
-9 -19 -5 0 -12 -16 -15 -35 -4 -19 -10 -35 -14 -35 -9 0 -8 -174 2 -259 6
-48 4 -66 -6 -72 -10 -7 -10 -9 0 -9 8 0 11 -8 8 -22 -5 -23 -16 -99 -21 -148
-10 -86 -17 -135 -20 -140 -8 -12 -20 -127 -18 -173 1 -27 -3 -47 -9 -47 -6 0
-6 -6 2 -15 7 -8 10 -25 6 -40 -4 -17 -2 -25 6 -25 9 0 8 -3 -2 -10 -10 -6
-11 -10 -2 -10 7 0 12 -13 12 -32 0 -18 6 -51 14 -72 9 -28 11 -45 4 -55 -13
-20 -129 -76 -233 -112 -47 -17 -81 -35 -83 -44 -2 -8 -2 -15 0 -15 13 0 204
73 261 100 37 18 76 30 87 27 25 -6 25 -7 0 95 -30 121 -36 274 -17 384 33
181 50 366 41 444 -19 179 -11 224 71 419 21 50 26 73 21 110 -20 157 -20 158
29 351 59 232 76 277 192 530 214 467 352 681 538 838 51 43 43 60 -10 20z"/>
<path d="M928 2288 c7 -7 12 -19 12 -28 0 -17 28 -43 51 -48 9 -1 7 3 -5 13
-11 8 -23 15 -28 15 -4 0 -8 5 -8 11 0 7 9 9 22 6 12 -4 28 -1 35 5 9 7 13 7
14 -1 2 -17 4 -23 24 -66 15 -32 20 -36 23 -20 2 10 -1 21 -7 23 -6 2 -11 13
-11 23 0 42 -17 58 -56 52 -28 -5 -39 -2 -46 10 -5 10 -14 17 -20 17 -9 0 -9
-3 0 -12z"/>
<path d="M1263 2207 c-18 -12 -33 -25 -33 -29 0 -11 62 13 89 34 l24 18 -24
-1 c-13 0 -39 -10 -56 -22z"/>
<path d="M632 2180 c-40 -4 -78 -12 -84 -18 -10 -10 -2 -11 32 -7 25 4 72 9
105 13 80 10 39 19 -53 12z"/>
<path d="M1318 2164 c-27 -9 -48 -21 -48 -25 0 -5 12 -4 28 2 57 23 159 29
239 15 87 -15 105 -13 46 4 -67 20 -212 22 -265 4z"/>
<path d="M1190 2159 c-14 -4 -21 -7 -16 -8 5 -1 -2 -11 -15 -23 -14 -12 -17
-19 -8 -15 9 3 22 0 28 -6 6 -6 11 -7 11 -2 0 5 12 -8 28 -27 43 -57 83 -85
166 -117 42 -16 76 -27 76 -24 0 3 6 1 13 -4 6 -5 46 -10 87 -12 41 -1 87 -4
103 -7 15 -3 27 -1 27 4 0 12 -30 19 -125 27 -67 6 -178 35 -220 59 -11 6 -29
11 -40 11 -11 0 -20 5 -20 12 0 7 -8 21 -17 32 -33 39 -50 71 -45 86 8 19 -2
24 -33 14z"/>
<path d="M594 2142 c-55 -8 -65 -76 -17 -107 20 -14 34 -15 72 -8 26 5 45 14
44 21 -2 6 7 16 18 23 15 8 19 8 15 0 -10 -16 10 -14 49 5 42 20 52 42 22 48
-64 13 -97 14 -97 3 0 -9 -2 -9 -8 -1 -8 13 -64 22 -98 16z m95 -37 c23 -25
17 -37 -7 -13 -9 9 -15 9 -24 -1 -11 -10 -10 -15 5 -25 26 -20 21 -26 -19 -26
-48 0 -74 16 -74 45 0 49 79 62 119 20z"/>
<path d="M1358 2128 c-43 -11 -78 -24 -78 -29 0 -6 9 -5 21 1 11 7 21 10 22 8
31 -62 77 -82 202 -86 81 -3 107 0 135 15 51 26 50 46 -5 61 -63 17 -81 16
-66 -2 9 -11 9 -19 0 -34 -26 -42 -156 -33 -200 14 -27 29 -18 42 34 51 29 4
38 2 44 -12 12 -34 43 -57 68 -51 21 5 39 38 27 50 -10 10 -48 6 -60 -6 -9 -9
-12 -9 -12 3 0 12 -43 43 -53 38 -1 -1 -37 -10 -79 -21z m287 -57 c5 -9 -31
-41 -47 -41 -5 0 -1 11 8 25 17 26 29 31 39 16z"/>
<path d="M1713 2125 c-3 -9 -3 -19 1 -22 8 -9 37 18 30 28 -8 14 -24 11 -31
-6z"/>
<path d="M808 2050 c-62 -52 -136 -79 -212 -81 -38 -1 -81 -8 -95 -15 -26 -14
-25 -14 19 -15 87 -3 145 3 165 17 11 8 27 14 37 14 10 0 18 4 18 9 0 5 16 15
35 21 20 7 35 18 35 27 0 9 6 13 15 9 9 -3 18 1 21 9 13 32 -3 34 -38 5z"/>
<path d="M1715 2031 c-3 -5 0 -13 6 -16 5 -4 8 -14 4 -22 -4 -13 -3 -14 10 -3
19 16 20 50 1 50 -8 0 -17 -4 -21 -9z"/>
<path d="M531 1598 c-45 -22 -53 -38 -57 -110 -4 -52 -2 -58 15 -58 14 0 18 5
14 20 -8 29 17 111 36 118 9 3 23 13 31 22 8 9 24 14 35 12 11 -2 18 -2 15 1
-13 14 -58 12 -89 -5z"/>
<path d="M1456 1550 c6 -6 33 -13 60 -15 56 -6 35 7 -31 19 -29 6 -37 5 -29
-4z"/>
<path d="M816 1518 c4 -6 1 -14 -6 -18 -9 -6 0 -15 29 -30 45 -22 84 -20 74 6
-3 9 -12 12 -24 9 -11 -4 -19 -2 -19 4 0 5 -14 16 -30 25 -17 8 -27 10 -24 4z"/>
<path d="M550 1515 c0 -19 43 -85 55 -85 9 0 21 -11 27 -25 13 -29 21 -31 38
-10 15 19 56 10 88 -18 12 -11 22 -17 22 -13 0 4 9 2 19 -4 18 -9 81 -20 141
-24 14 -1 32 4 40 10 8 6 39 17 69 24 42 10 55 10 61 0 6 -9 11 -8 19 6 10 18
11 18 17 -3 7 -25 24 -31 24 -9 0 9 12 13 38 12 20 -1 56 2 80 6 24 4 64 10
90 14 77 10 162 62 162 98 0 12 -18 5 -41 -15 -66 -59 -148 -75 -442 -84 -191
-7 -213 -6 -275 13 -37 11 -87 25 -112 32 -25 7 -58 26 -78 46 -33 33 -42 39
-42 29z"/>
<path d="M1820 1464 c0 -3 7 -12 15 -21 11 -11 14 -25 9 -51 -9 -50 -12 -53
-40 -48 -19 4 -25 0 -30 -20 -4 -14 -4 -28 0 -31 3 -3 1 -12 -5 -20 -6 -7 -8
-13 -4 -13 10 0 45 40 45 52 0 4 7 8 15 8 18 0 55 57 55 85 0 27 -27 65 -46
65 -8 0 -14 -3 -14 -6z"/>
<path d="M1535 1422 c-26 -55 -26 -68 -1 -70 17 -1 25 7 34 31 16 43 15 64 -2
70 -8 3 -20 -8 -31 -31z"/>
<path d="M1356 1315 c-3 -8 -13 -15 -21 -15 -9 0 -13 -5 -10 -10 5 -8 11 -7
20 0 8 7 19 9 25 5 6 -3 10 3 10 14 0 24 -15 28 -24 6z"/>
<path d="M1170 1261 c0 -5 -12 -11 -27 -14 -16 -3 -44 -9 -63 -13 -67 -15
-251 -9 -310 9 -46 14 -52 15 -40 2 9 -8 39 -19 68 -25 65 -12 244 -15 297 -5
51 10 97 33 90 45 -8 12 -15 13 -15 1z"/>
<path d="M760 1172 c0 -14 84 -36 88 -23 2 6 13 11 25 11 18 0 19 2 7 10 -10
6 -20 4 -31 -6 -14 -13 -18 -13 -29 1 -13 16 -60 21 -60 7z"/>
<path d="M1485 1068 c-4 -10 -13 -18 -21 -18 -8 0 -14 -4 -14 -10 0 -5 -7 -10
-15 -10 -8 0 -15 -4 -15 -10 0 -5 -11 -12 -24 -16 -14 -3 -27 -12 -30 -21 -4
-9 -13 -12 -26 -8 -11 3 -20 2 -20 -3 0 -10 -63 -41 -95 -47 -11 -2 -21 -4
-22 -5 -4 -4 -21 -7 -38 -9 -19 -1 -55 -37 -55 -53 1 -8 6 -6 14 5 14 19 36
23 36 7 0 -5 4 -10 10 -10 5 0 7 6 4 14 -4 10 14 18 65 31 39 9 74 21 77 26 3
5 14 9 25 9 10 0 19 4 19 9 0 5 11 12 25 15 17 4 23 11 18 22 -5 14 -1 16 25
12 22 -3 32 0 32 8 0 7 9 19 21 28 12 8 19 22 16 33 -4 17 -4 17 -12 1z"/>
<path d="M1046 881 c-7 -10 3 -41 13 -41 3 0 12 4 19 9 11 6 10 11 -3 25 -19
19 -22 19 -29 7z"/>
<path d="M870 864 c0 -14 30 -33 44 -28 13 5 13 8 1 20 -13 14 -45 20 -45 8z"/>
<path d="M477 495 c36 -52 88 -92 170 -130 17 -8 34 -19 38 -25 3 -5 15 -10
26 -10 13 0 18 -4 13 -12 -4 -6 -3 -8 3 -5 5 3 33 -3 62 -13 28 -11 60 -20 71
-20 11 0 20 -4 20 -10 0 -5 7 -7 15 -4 10 4 15 0 16 -12 0 -11 3 -14 5 -7 3 7
17 10 32 8 67 -11 92 -13 97 -5 3 5 32 8 65 7 33 -1 60 1 60 4 0 3 14 6 30 7
17 0 28 -4 25 -9 -8 -12 1 -12 23 0 9 6 37 13 62 16 50 6 78 20 67 32 -5 4
-11 3 -15 -2 -4 -6 -26 -10 -50 -10 -24 1 -45 -2 -48 -7 -3 -4 -10 -8 -15 -8
-6 0 -7 5 -3 12 5 8 2 9 -12 4 -40 -17 -154 -27 -154 -13 0 10 -82 6 -90 -5
-3 -4 -19 0 -35 8 -18 9 -31 11 -33 5 -2 -7 -10 -7 -20 -1 -23 12 -132 44
-158 46 -12 0 -41 14 -65 30 -24 16 -59 36 -76 43 -18 7 -33 17 -33 21 0 4
-10 10 -21 13 -15 4 -20 11 -15 22 3 10 2 14 -5 9 -6 -3 -25 7 -42 22 l-30 29
20 -30z"/>
<path d="M1894 496 c-15 -12 -17 -17 -6 -27 10 -11 12 -10 12 4 0 9 5 16 11
15 6 -2 14 3 16 10 6 16 -9 15 -33 -2z"/>
<path d="M1831 465 c-25 -14 -46 -43 -38 -51 7 -7 46 26 58 49 5 9 8 17 7 16
-2 -1 -14 -7 -27 -14z"/>
<path d="M1725 420 c-14 -15 -16 -23 -7 -32 15 -15 42 -3 42 19 -1 17 -1 17
-14 1 -7 -10 -16 -15 -20 -11 -3 3 1 15 11 25 9 10 14 18 11 18 -3 0 -13 -9
-23 -20z"/>
<path d="M1585 354 c-11 -12 -21 -26 -22 -33 -4 -14 23 -15 32 -1 3 6 1 10 -6
10 -7 0 -5 6 5 13 11 8 17 18 15 23 -2 5 -13 -1 -24 -12z"/>
<path d="M2116 353 c4 -16 13 -35 21 -43 14 -13 14 -13 4 7 -6 12 -11 31 -11
42 0 12 -5 21 -10 21 -6 0 -8 -11 -4 -27z"/>
<path d="M1789 158 c-1 -17 -2 -19 -6 -5 -2 9 -8 17 -13 17 -4 0 -6 -9 -3 -21
4 -12 11 -18 20 -15 8 3 17 6 19 6 2 0 4 9 4 20 0 28 -20 25 -21 -2z"/>
<path d="M2370 149 c0 -5 8 -12 18 -15 9 -3 25 -10 36 -15 13 -8 17 -7 14 1
-5 15 -68 42 -68 29z"/>
<path d="M2470 140 c6 -11 16 -18 21 -14 6 3 24 -6 40 -22 16 -15 29 -23 29
-18 0 11 -39 42 -78 63 -22 12 -23 11 -12 -9z"/>
<path d="M2925 140 c3 -5 13 -10 22 -10 9 0 25 -7 35 -17 10 -9 18 -11 18 -5
0 6 -13 18 -30 27 -33 17 -54 20 -45 5z"/>
<path d="M2890 72 c0 -6 14 -18 32 -26 36 -18 38 -19 38 -8 0 8 -14 16 -62 40
-5 2 -8 -1 -8 -6z"/>
<path d="M815 11 c3 -6 27 -11 52 -11 57 0 53 5 -11 14 -33 5 -46 4 -41 -3z"/>
</g>
</svg>
