<?xml version="1.0" standalone="no"?>
<!DOCTYPE svg PUBLIC "-//W3C//DTD SVG 20010904//EN"
 "http://www.w3.org/TR/2001/REC-SVG-20010904/DTD/svg10.dtd">
<svg version="1.0" xmlns="http://www.w3.org/2000/svg"
 width="300.000000pt" height="277.000000pt" viewBox="0 0 300.000000 277.000000"
 preserveAspectRatio="xMidYMid meet">
<metadata>
Created by potrace 1.10, written by Peter Selinger 2001-2011
</metadata>
<g transform="translate(0.000000,277.000000) scale(0.100000,-0.100000)"
fill="#000000" stroke="none">
<path d="M777 2205 c-5 -21 -16 -44 -24 -51 -11 -7 -14 -17 -8 -30 6 -15 8
-16 12 -4 3 8 12 22 20 32 9 9 13 31 11 55 l-3 38 -8 -40z"/>
<path d="M1760 2085 c0 -8 -6 -15 -12 -15 -18 0 -98 -106 -98 -130 0 -15 -51
-70 -66 -70 -22 0 -16 -26 9 -37 32 -15 86 15 71 39 -4 7 12 53 35 98 14 26
69 50 93 41 16 -6 26 -4 34 7 8 12 15 12 32 3 12 -6 22 -16 22 -21 0 -5 14
-16 30 -25 34 -18 38 -32 13 -52 -16 -13 -15 -14 17 -10 20 3 53 -1 75 -9 22
-7 60 -14 86 -14 25 0 50 -5 56 -11 7 -7 12 -6 17 6 3 10 2 14 -5 10 -6 -4
-19 1 -29 10 -13 12 -27 15 -45 11 -36 -9 -71 12 -150 91 -38 37 -72 68 -76
68 -5 0 -14 6 -20 13 -19 18 -89 16 -89 -3z"/>
<path d="M2125 2049 c-4 -17 -3 -35 3 -41 6 -6 11 4 14 31 4 48 -7 55 -17 10z"/>
<path d="M680 2001 c0 -11 -4 -23 -10 -26 -5 -3 -10 -15 -10 -26 0 -10 -4 -19
-10 -19 -5 0 -10 -7 -10 -15 0 -30 19 -14 26 21 4 19 13 38 20 41 16 6 19 29
4 38 -5 3 -10 -3 -10 -14z"/>
<path d="M844 1990 c-5 -5 -20 -10 -34 -12 -19 -2 -24 -8 -22 -25 2 -16 -1
-20 -15 -17 -22 6 -76 -46 -55 -53 21 -8 13 -23 -12 -23 -13 0 -26 -7 -30 -15
-3 -8 -12 -15 -21 -15 -8 0 -15 -7 -15 -16 0 -18 -2 -18 90 14 36 13 61 16 72
11 9 -5 28 -9 41 -9 24 0 25 2 16 41 -6 23 -7 44 -5 47 3 2 30 1 60 -2 48 -6
60 -13 95 -51 24 -27 41 -54 41 -69 0 -24 20 -35 52 -28 17 3 17 6 2 35 -9 18
-26 42 -38 55 -38 41 -118 117 -129 123 -22 11 -85 17 -93 9z m-14 -73 c0 -41
-4 -45 -36 -39 -23 4 -24 5 -8 23 9 10 22 16 28 12 6 -3 5 0 -1 8 -17 18 -16
29 2 29 10 0 15 -10 15 -33z"/>
<path d="M1749 1963 c-17 -31 -12 -84 8 -91 18 -5 28 25 14 42 -6 7 -8 27 -5
45 8 38 3 39 -17 4z"/>
<path d="M1815 1960 c-14 -22 6 -50 35 -50 29 0 44 19 34 45 -7 17 -59 21 -69
5z"/>
<path d="M906 1855 c-22 -34 -20 -47 7 -43 17 2 23 11 25 36 4 38 -10 41 -32
7z"/>
<path d="M1929 1845 c-2 -2 -36 -5 -74 -6 -39 -1 -80 -8 -91 -15 -12 -7 -39
-15 -60 -18 -22 -2 -56 -12 -77 -20 -21 -9 -41 -14 -46 -12 -4 3 -20 7 -35 10
-33 6 -31 -14 2 -29 12 -5 22 -13 22 -17 0 -14 45 -8 69 8 46 32 160 54 286
54 140 -1 197 -11 243 -47 18 -14 36 -22 39 -19 8 8 -25 56 -43 63 -8 3 -14
11 -14 18 0 8 -9 10 -25 7 -14 -2 -25 0 -25 5 0 5 -34 10 -76 11 -41 1 -79 4
-83 7 -5 2 -10 3 -12 0z"/>
<path d="M610 1796 c0 -9 -3 -15 -7 -15 -24 4 -36 -2 -26 -12 12 -12 -3 -89
-18 -89 -4 0 -15 10 -23 22 -11 16 -16 18 -16 7 0 -8 6 -21 13 -28 10 -10 9
-14 -5 -22 -10 -6 -18 -15 -18 -22 0 -7 4 -6 10 3 8 13 10 12 10 -2 0 -28 16
-21 46 17 19 25 25 43 21 62 -3 18 2 37 14 55 12 16 15 29 9 33 -5 3 -10 -1
-10 -9z"/>
<path d="M832 1764 c-16 -11 -27 -13 -35 -5 -8 6 -18 6 -27 1 -8 -6 -27 -10
-42 -10 -15 0 -30 -5 -33 -11 -4 -6 -13 -8 -20 -5 -7 2 -18 -1 -24 -7 -13 -13
-15 -31 -2 -22 38 23 274 25 375 2 64 -14 73 -14 108 1 28 12 38 22 36 36 -4
24 -28 34 -28 12 0 -30 -36 -38 -97 -21 -32 9 -74 18 -94 19 -20 2 -42 7 -49
11 -7 4 -16 2 -20 -5 -4 -7 -13 -9 -19 -6 -6 4 -9 12 -6 17 9 13 3 11 -23 -7z"/>
<path d="M501 1603 c19 -25 32 -33 41 -27 14 9 9 26 -6 21 -8 -3 -17 1 -20 9
-3 8 -11 14 -17 14 -8 0 -7 -6 2 -17z"/>
<path d="M1402 1598 c5 -32 28 -36 26 -4 -1 14 -8 26 -16 26 -8 0 -12 -9 -10
-22z"/>
<path d="M1301 1586 c-13 -33 -8 -44 12 -24 9 8 11 21 7 33 -7 18 -9 17 -19
-9z"/>
<path d="M523 1410 c6 -71 40 -169 60 -170 4 0 4 8 -1 18 -10 18 -27 121 -23
136 1 5 -5 6 -14 2 -14 -5 -16 1 -14 34 2 21 -1 43 -5 47 -5 4 -6 -26 -3 -67z"/>
<path d="M627 1445 c-24 -33 -11 -53 14 -21 19 25 25 46 12 46 -5 0 -16 -12
-26 -25z"/>
<path d="M1628 1456 c-22 -16 -23 -26 -4 -26 7 0 19 -7 26 -15 7 -8 19 -15 27
-15 11 0 11 4 3 20 -6 11 -17 20 -25 20 -9 0 -12 6 -9 15 7 18 4 18 -18 1z"/>
<path d="M664 1384 l1 -42 27 22 c34 26 35 36 4 36 -13 0 -26 6 -29 13 -2 6
-4 -7 -3 -29z"/>
<path d="M1065 1358 c-16 -16 -38 -28 -47 -28 -10 0 -18 -4 -18 -10 0 -5 -11
-10 -25 -10 -14 0 -28 -7 -31 -15 -8 -20 -40 -28 -64 -15 -33 18 -23 -6 12
-28 l33 -21 55 31 c66 38 123 90 118 109 -2 10 -12 6 -33 -13z"/>
<path d="M1690 1369 c0 -35 124 -131 144 -112 12 12 6 32 -8 27 -8 -3 -16 -1
-19 3 -3 5 9 10 26 11 41 3 61 22 23 22 -52 0 -134 29 -139 50 -7 26 -27 26
-27 -1z"/>
<path d="M884 1156 c20 -26 36 -56 36 -67 0 -10 11 -29 24 -40 13 -12 27 -32
30 -45 9 -33 27 -30 24 4 -4 51 27 72 38 26 l7 -27 12 24 c36 70 21 114 -22
65 -26 -30 -38 -25 -60 27 -7 15 -17 27 -22 27 -6 0 -18 9 -28 19 -10 11 -31
23 -46 27 l-29 7 36 -47z"/>
<path d="M1821 1178 c-9 -14 -19 -18 -37 -14 -13 4 -24 2 -24 -2 0 -9 -140
-32 -193 -32 -29 0 -97 -27 -108 -42 -3 -5 -17 -10 -30 -11 -13 -1 -35 -7 -49
-14 -22 -12 -19 -12 30 -7 30 3 59 10 65 15 5 5 17 9 27 9 10 0 29 7 42 15 39
26 73 11 81 -36 8 -43 19 -44 28 -2 3 16 15 39 26 51 18 22 22 23 48 10 23
-11 29 -21 34 -58 l5 -45 8 40 c4 22 8 47 9 55 3 23 38 25 44 2 5 -20 5 -20
26 1 l21 21 9 -22 c16 -34 53 -26 38 8 -3 8 -10 15 -16 16 -5 0 -27 4 -48 8
-36 8 -37 9 -22 26 9 10 12 20 8 23 -5 3 -15 -3 -22 -15z"/>
<path d="M1105 1106 c11 -9 26 -20 33 -26 8 -7 12 -7 12 0 0 5 5 10 11 10 6 0
9 -7 5 -15 -4 -13 -2 -14 14 -5 14 7 20 7 20 0 0 -5 7 -10 15 -10 9 0 18 -6
21 -14 3 -8 14 -11 28 -9 20 4 38 -7 42 -27 0 -3 6 -18 12 -33 17 -41 0 -71
-37 -64 -16 3 -34 1 -41 -6 -10 -9 -14 -9 -17 1 -3 6 -12 12 -21 11 -11 0 -12
-2 -4 -6 17 -7 15 -30 -4 -37 -25 -10 -42 -7 -59 10 -13 13 -18 14 -31 3 -14
-11 -11 -15 20 -25 24 -9 46 -10 68 -3 18 5 48 9 67 9 22 0 43 8 58 22 19 18
28 20 41 11 21 -12 209 -10 222 3 5 5 5 15 0 24 -8 13 -10 12 -10 -2 0 -20
-16 -24 -22 -7 -4 12 -67 15 -133 6 -59 -8 -97 32 -60 63 17 14 12 25 -13 25
-10 0 -18 9 -20 23 -3 18 -10 22 -43 22 -26 0 -39 4 -39 14 0 13 -45 29 -120
41 -33 6 -34 5 -15 -9z"/>
<path d="M860 1071 c0 -6 4 -11 9 -11 5 0 7 -8 4 -19 -3 -10 2 -32 11 -49 9
-17 15 -39 14 -49 -3 -40 2 -103 10 -103 14 0 8 174 -8 204 -15 30 -40 46 -40
27z"/>
<path d="M800 1048 c0 -7 7 -21 14 -31 11 -14 15 -15 25 -3 9 11 6 17 -14 30
-18 12 -25 13 -25 4z"/>
<path d="M1947 1013 c-15 -14 -6 -24 20 -21 34 4 43 28 11 28 -14 0 -28 -3
-31 -7z"/>
<path d="M1854 996 c-12 -6 -29 -17 -37 -24 -17 -15 -28 -60 -16 -68 5 -3 9 4
9 15 0 12 6 21 14 21 7 0 21 11 30 25 10 15 22 22 31 19 9 -4 15 0 15 10 0 18
-16 19 -46 2z"/>
<path d="M1736 982 c-14 -14 -18 -15 -25 -3 -5 8 -11 9 -15 3 -3 -6 -15 -8
-27 -5 -14 4 -25 -1 -35 -16 -8 -11 -22 -21 -30 -21 -8 0 -14 -4 -14 -10 0
-15 26 -12 40 5 7 8 16 12 21 9 5 -3 18 0 30 7 15 8 19 8 15 0 -4 -6 0 -11 8
-11 9 0 16 5 16 10 0 6 6 10 14 10 17 0 40 26 28 34 -5 3 -16 -3 -26 -12z"/>
<path d="M1982 934 c-40 -48 -46 -71 -18 -69 12 2 20 8 18 15 -1 6 7 27 19 46
29 48 18 53 -19 8z"/>
<path d="M1747 936 c-19 -20 -21 -32 -8 -41 11 -6 34 31 29 47 -2 6 -11 4 -21
-6z"/>
<path d="M1885 913 c-12 -28 -13 -39 -4 -47 9 -8 10 -8 6 0 -4 6 2 27 12 48
10 20 15 36 10 36 -5 0 -16 -17 -24 -37z"/>
<path d="M1015 930 c-3 -5 -12 -7 -20 -3 -8 3 -15 1 -15 -3 1 -18 38 -53 61
-57 13 -2 18 -2 12 0 -7 3 -13 9 -13 14 0 5 -7 9 -15 9 -9 0 -12 6 -9 15 4 8
10 13 14 10 12 -8 41 6 34 16 -7 12 -41 12 -49 -1z"/>
<path d="M1610 890 c0 -24 -54 -41 -148 -47 -125 -7 -130 -7 -137 -15 -4 -3
-26 -5 -50 -2 -24 2 -47 0 -50 -6 -3 -5 -26 -10 -50 -10 -24 0 -47 -4 -50 -10
-3 -5 -11 -10 -16 -10 -6 0 -7 5 -4 10 3 6 -1 10 -9 10 -22 0 -20 -10 9 -45
16 -19 27 -26 32 -19 16 23 82 35 208 41 88 3 148 11 187 24 32 10 67 19 79
19 12 0 23 8 26 20 3 11 13 20 22 21 9 1 27 2 40 2 13 1 26 8 28 15 6 15 -64
17 -87 2 -9 -6 -17 -5 -22 3 -6 9 -8 8 -8 -3z"/>
<path d="M917 829 c-14 -8 -17 -17 -11 -37 3 -15 6 -41 5 -58 -1 -17 3 -42 8
-55 8 -19 10 -10 10 44 1 38 -3 67 -9 67 -5 0 -2 9 7 19 21 26 36 18 52 -26 8
-20 24 -48 37 -62 13 -14 24 -29 24 -33 0 -5 9 -8 20 -8 21 0 40 -27 40 -58 0
-10 12 -29 26 -43 14 -13 40 -44 57 -69 38 -55 97 -120 109 -120 5 0 21 -11
36 -25 15 -14 31 -25 35 -25 5 0 23 -10 40 -22 26 -18 30 -19 24 -5 -5 14 -3
16 9 9 19 -10 64 -4 64 9 0 5 6 9 13 9 8 0 35 17 61 37 38 30 49 34 56 23 7
-12 14 -10 34 9 21 20 26 32 24 71 -2 46 24 120 42 120 12 0 34 40 26 47 -3 3
-10 -5 -15 -18 -9 -21 -10 -22 -11 -4 -1 19 -2 18 -10 -2 -6 -14 -15 -21 -23
-17 -10 4 -17 -5 -21 -30 -4 -20 -11 -36 -17 -36 -6 0 -7 -5 -3 -11 3 -6 1
-15 -6 -19 -9 -6 -9 -12 2 -30 9 -17 10 -24 1 -27 -6 -2 -21 -13 -34 -24 -12
-10 -32 -19 -44 -19 -11 0 -26 -5 -33 -12 -9 -9 -12 -9 -12 2 0 7 -3 10 -6 7
-4 -4 -1 -13 6 -22 10 -13 9 -15 -9 -15 -11 0 -21 -6 -21 -14 0 -7 -12 -16
-26 -19 -19 -3 -24 -1 -20 10 4 11 1 13 -15 8 -11 -4 -27 -1 -36 7 -9 7 -21
13 -27 14 -29 3 -56 18 -56 30 0 8 -9 14 -20 14 -22 0 -26 20 -8 38 9 9 9 12
0 12 -7 0 -12 -4 -12 -10 0 -18 -22 -10 -27 10 -3 11 -9 17 -14 14 -5 -3 -9 1
-9 8 0 8 -19 34 -42 58 -24 25 -42 48 -41 52 2 5 -4 8 -12 8 -22 0 -18 18 7
31 18 10 19 13 8 17 -41 13 -131 88 -159 133 -31 50 -43 56 -74 38z"/>
<path d="M2238 815 c-4 -17 -1 -25 8 -25 8 0 14 11 14 25 0 14 -4 25 -9 25 -5
0 -11 -11 -13 -25z"/>
<path d="M2035 681 c-3 -6 0 -14 9 -17 8 -3 19 -19 25 -35 5 -16 15 -29 20
-29 6 0 11 -7 11 -15 0 -8 5 -15 10 -15 6 0 10 -8 10 -17 0 -14 2 -15 9 -4 7
11 9 11 14 0 3 -8 6 -9 6 -3 1 6 -8 19 -19 29 -11 10 -20 24 -20 30 0 7 -7 15
-15 19 -8 3 -15 12 -15 19 0 20 -36 51 -45 38z"/>
<path d="M1572 659 c-1 -15 -9 -29 -17 -33 -22 -8 -18 -28 4 -21 11 3 26 -1
35 -10 13 -14 16 -14 16 -2 0 8 -6 17 -14 20 -8 3 -16 21 -19 39 -3 27 -4 28
-5 7z"/>
<path d="M1647 673 c13 -2 29 -13 37 -24 10 -15 16 -17 21 -8 11 16 -22 39
-54 38 -24 -2 -24 -2 -4 -6z"/>
<path d="M1240 630 c0 -8 8 -20 18 -26 13 -8 21 -7 36 8 11 10 15 18 10 18 -6
0 -15 -5 -22 -12 -9 -9 -15 -8 -27 8 -11 14 -14 15 -15 4z"/>
<path d="M916 528 c16 -28 27 -38 36 -32 5 3 2 14 -8 25 -19 21 -39 26 -28 7z"/>
<path d="M2161 522 c0 -7 4 -22 9 -33 13 -23 45 -26 36 -3 -3 9 -6 17 -6 20 0
2 -6 1 -14 -2 -8 -3 -16 2 -19 13 -3 10 -5 12 -6 5z"/>
<path d="M2270 404 c-13 -33 -13 -32 13 -45 18 -9 20 -9 10 1 -7 7 -9 25 -6
41 7 36 -4 38 -17 3z"/>
<path d="M1112 343 c2 -40 8 -76 12 -80 4 -5 5 26 1 67 -9 97 -18 106 -13 13z"/>
<path d="M1120 195 c0 -25 3 -45 8 -45 4 0 7 20 7 45 0 25 -3 45 -7 45 -5 0
-8 -20 -8 -45z"/>
</g>
</svg>
