<?xml version="1.0" standalone="no"?>
<!DOCTYPE svg PUBLIC "-//W3C//DTD SVG 20010904//EN"
 "http://www.w3.org/TR/2001/REC-SVG-20010904/DTD/svg10.dtd">
<svg version="1.0" xmlns="http://www.w3.org/2000/svg"
 width="300.000000pt" height="218.000000pt" viewBox="0 0 300.000000 218.000000"
 preserveAspectRatio="xMidYMid meet">
<metadata>
Created by potrace 1.10, written by Peter Selinger 2001-2011
</metadata>
<g transform="translate(0.000000,218.000000) scale(0.100000,-0.100000)"
fill="#000000" stroke="none">
<path d="M1223 1906 c-12 -20 -97 -113 -88 -96 4 8 -7 1 -24 -17 -63 -64 -28
-56 59 15 35 28 70 52 77 52 14 0 34 40 26 53 -7 12 -41 8 -50 -7z"/>
<path d="M1055 1779 c-11 -6 -43 -34 -70 -63 -28 -28 -49 -49 -48 -47 2 3 -11
20 -40 53 -12 13 -22 17 -29 10 -6 -6 2 -20 21 -40 17 -17 31 -35 31 -40 0 -5
-39 -43 -87 -83 -49 -41 -94 -81 -101 -89 -11 -13 -12 -12 -3 6 8 16 5 23 -11
33 -25 16 -33 9 -19 -17 6 -12 11 -25 11 -30 0 -5 -107 -101 -237 -213 -253
-216 -296 -257 -320 -302 -44 -86 75 -15 290 171 206 179 207 180 200 152 -3
-11 -9 -20 -14 -20 -5 0 -9 -8 -9 -17 1 -16 2 -16 16 2 8 11 19 26 23 33 14
24 38 3 33 -29 -4 -26 -1 -30 13 -27 16 3 24 19 27 55 1 7 5 10 9 7 10 -6 5
-40 -10 -77 -14 -36 -14 -37 5 -37 10 0 14 6 10 15 -3 8 -1 15 5 15 6 0 9 6 6
13 -3 7 1 21 8 30 11 15 14 15 25 2 7 -8 16 -13 20 -10 4 3 -2 -27 -13 -65
-11 -39 -22 -68 -25 -66 -2 3 4 30 13 61 22 77 13 80 -14 6 -16 -44 -26 -59
-37 -54 -11 4 -12 8 -3 19 7 8 8 18 4 22 -4 4 -10 1 -12 -5 -10 -28 -21 -11
-16 23 5 29 3 36 -8 32 -8 -3 -15 -18 -16 -35 -1 -37 24 -64 81 -88 32 -14 38
-14 33 -2 -3 8 5 43 18 78 13 35 24 58 24 51 1 -7 6 -10 11 -7 6 4 7 11 4 17
-4 7 -2 8 4 4 8 -5 8 -13 0 -32 -7 -15 -14 -20 -18 -13 -5 6 -10 1 -14 -14 -3
-14 -9 -33 -13 -43 -4 -12 -3 -15 6 -10 8 5 7 -3 -4 -24 -9 -17 -19 -30 -21
-27 -3 3 -16 -6 -29 -19 -13 -13 -28 -24 -32 -24 -5 0 -28 18 -52 40 -23 22
-44 40 -46 40 -1 0 -9 -8 -16 -17 -12 -15 -12 -16 3 -10 9 3 22 -1 28 -9 12
-13 6 -19 -15 -14 -5 1 -6 -2 -2 -7 5 -4 12 -8 15 -8 4 0 13 -4 20 -8 6 -5 12
-6 12 -2 0 3 18 -4 41 -15 50 -26 75 -21 58 11 -6 13 -7 19 -1 15 15 -9 45 38
72 112 12 34 24 62 27 62 11 0 33 -30 31 -41 -2 -7 12 -18 30 -24 l33 -11 -36
-44 c-20 -24 -44 -50 -53 -57 -14 -10 -15 -12 -2 -13 13 0 13 -1 0 -10 -12 -8
-11 -10 8 -10 13 0 22 5 20 13 -2 7 15 34 37 61 22 26 39 53 37 59 -2 7 11 -3
27 -21 17 -18 31 -39 31 -46 0 -8 11 -16 25 -18 13 -3 22 -1 19 3 -3 5 -13 9
-22 9 -13 0 -12 3 6 16 12 8 22 22 22 30 0 8 5 14 10 14 7 0 7 -6 0 -19 -15
-28 -12 -41 8 -41 13 0 18 10 20 47 3 48 11 68 19 45 3 -6 10 -9 16 -5 7 4 6
0 -1 -10 -13 -15 -9 -37 6 -37 4 0 14 13 23 28 13 23 13 30 2 40 -7 7 -13 18
-13 24 0 5 8 0 19 -13 10 -13 16 -30 14 -39 -4 -9 1 -7 10 5 9 11 17 25 17 31
0 6 10 24 22 40 14 18 16 24 5 15 -31 -25 -18 4 18 39 19 19 35 41 35 49 -1
10 -13 1 -32 -22 -17 -21 -39 -42 -50 -48 -18 -10 -19 -9 -7 13 7 12 13 33 15
45 2 20 0 21 -18 12 -36 -19 -111 -32 -102 -17 3 5 8 7 11 4 3 -3 24 4 47 16
58 29 117 70 111 76 -2 3 -23 -7 -45 -22 -47 -31 -60 -33 -35 -6 29 32 4 23
-32 -12 -19 -18 -33 -26 -33 -18 0 9 -7 6 -23 -8 -13 -12 -31 -22 -39 -22 -25
0 -33 -55 -13 -86 16 -24 16 -26 -2 -22 -10 2 -18 10 -18 17 0 8 -6 16 -12 19
-18 5 -16 -23 2 -38 8 -7 15 -18 14 -24 -3 -22 1 -36 10 -36 4 0 6 11 3 25 -3
17 0 25 8 23 7 -2 20 10 29 27 10 16 28 32 42 36 13 4 17 7 9 8 -8 1 3 12 25
26 48 29 56 31 48 8 -11 -34 -76 -123 -89 -123 -7 0 -18 -8 -23 -17 -8 -14
-10 -15 -11 -3 0 9 -10 2 -26 -17 -28 -36 -64 -44 -64 -15 0 14 2 15 10 2 14
-22 20 -8 11 26 -5 16 -13 28 -19 27 -16 -4 -24 64 -11 89 12 21 12 22 19 3 4
-13 9 -15 14 -7 4 7 4 17 1 22 -3 6 0 10 7 10 7 0 -2 13 -20 29 -38 34 -66 34
-70 0 -2 -13 -12 -33 -22 -44 -9 -11 -22 -29 -28 -41 -11 -21 -11 -21 -72 8
-33 16 -60 31 -60 34 0 3 9 0 20 -6 14 -7 20 -7 20 0 0 5 -6 10 -12 10 -7 0
-26 7 -42 15 -28 15 -42 10 -47 -15 -6 -34 -9 -43 -15 -48 -3 -4 -4 10 0 31 6
30 4 37 -9 37 -9 0 -13 5 -10 10 3 6 16 10 28 10 28 0 90 37 82 49 -3 5 4 7
15 4 17 -4 19 -2 13 13 -6 17 -5 18 13 4 18 -14 18 -14 4 4 -14 18 -13 18 10
11 35 -10 70 -33 70 -46 0 -12 -40 -8 -74 6 -16 7 -18 5 -12 -11 6 -15 5 -17
-5 -6 -7 6 -18 12 -23 12 -6 0 -5 -5 2 -12 6 -6 40 -12 75 -12 53 -1 64 1 59
13 -3 9 -1 12 6 7 7 -4 12 -3 12 3 0 5 -9 12 -20 16 -28 9 -46 76 -24 92 9 6
13 16 9 22 -3 6 0 11 9 11 16 0 16 -24 -1 -41 -6 -6 -9 -18 -6 -25 4 -10 11
-7 26 13 15 18 17 28 9 31 -20 6 6 42 31 42 20 1 21 1 4 11 -14 8 -22 8 -30 0
-6 -6 -17 -11 -25 -11 -7 0 -20 -7 -28 -15 -9 -8 -12 -15 -8 -15 5 0 3 -5 -4
-12 -7 -7 -12 -27 -12 -45 0 -31 -1 -32 -25 -21 -18 8 -28 8 -39 -1 -11 -9
-22 -8 -50 5 -35 17 -36 17 -54 -4 -11 -12 -23 -18 -28 -14 -5 4 0 -3 10 -15
l19 -22 25 19 c13 11 32 20 41 20 11 -1 9 -5 -8 -14 -18 -10 -20 -15 -10 -19
11 -5 11 -6 -1 -6 -35 3 -46 -1 -32 -10 11 -7 10 -9 -3 -14 -9 -4 -13 -3 -10
3 13 21 -18 9 -37 -15 -11 -14 -24 -25 -30 -25 -7 0 -1 12 13 28 l24 27 -26
-22 c-38 -34 -47 -28 -13 9 16 17 24 28 17 24 -18 -10 -25 10 -8 24 8 7 13 16
10 20 -2 4 7 17 20 30 20 18 27 21 39 11 10 -8 16 -9 21 -1 3 5 1 10 -5 10 -6
0 -8 4 -5 10 8 13 55 -18 55 -36 0 -8 4 -14 9 -14 5 0 8 6 7 14 0 7 35 45 80
84 l81 70 29 -23 c16 -13 30 -28 30 -34 1 -6 2 -16 3 -22 0 -5 6 -7 11 -4 6 3
10 2 10 -4 0 -5 3 -17 6 -25 5 -14 2 -15 -21 -6 -33 13 -45 13 -45 0 0 -5 11
-10 24 -10 26 0 38 -13 43 -44 3 -18 1 -18 -23 5 -14 13 -26 23 -27 21 -1 -2
-10 0 -20 4 -10 3 -21 4 -24 0 -4 -3 0 -6 9 -6 19 0 42 -43 35 -69 -3 -12 1
-22 10 -25 8 -3 12 -2 8 3 -3 5 1 12 7 14 10 4 10 6 1 6 -7 1 -13 6 -13 12 0
5 4 8 9 5 4 -3 15 0 24 7 18 13 25 86 12 125 -6 18 -4 22 13 22 12 0 23 -4 27
-10 9 -15 70 24 73 47 2 14 -10 32 -36 54 -38 31 -39 34 -21 48 18 16 18 17
-2 41 -11 14 -18 18 -16 10 2 -8 -5 -25 -15 -37 l-20 -22 33 -20 c19 -12 30
-21 25 -21 -6 0 -1 -7 10 -15 16 -12 16 -14 3 -15 -9 0 -24 -9 -34 -20 -10
-11 -20 -18 -23 -15 -3 2 -11 -3 -18 -13 -11 -16 -13 -16 -33 2 -12 11 -21 25
-21 33 0 8 -4 11 -10 8 -6 -3 -10 4 -10 18 0 14 -7 30 -15 37 -25 20 -17 37
29 64 24 14 51 37 60 51 18 27 13 31 -19 14z m-70 -146 c0 -7 -3 -13 -7 -13
-5 0 -12 0 -17 0 -5 0 -11 6 -14 14 -4 9 2 13 16 12 12 -1 22 -7 22 -13z m-37
-48 c-43 -39 -140 -115 -148 -115 -36 0 23 88 63 94 10 1 16 5 15 8 -2 4 8 18
21 32 23 25 25 25 43 9 15 -13 16 -19 6 -28z m-292 -194 c-12 -13 -14 -21 -6
-26 8 -5 5 -14 -9 -29 -12 -12 -19 -25 -16 -28 6 -6 -360 -325 -390 -339 -18
-9 -18 -8 2 9 12 11 19 22 16 26 -4 3 -15 -1 -25 -11 -10 -9 -21 -13 -24 -10
-4 3 -15 -4 -26 -16 -16 -18 -15 -15 2 11 19 28 475 432 488 432 3 0 -3 -9
-12 -19z m367 -85 c10 -24 -18 -39 -37 -21 -9 9 -16 21 -16 26 0 15 47 10 53
-5z m-37 -87 c1 -16 9 -38 19 -49 16 -18 16 -19 -14 -18 -17 1 -31 5 -31 10 0
4 -12 5 -27 2 -26 -7 -27 -7 -10 10 9 10 17 22 17 27 0 6 5 7 12 3 7 -4 8 -3
4 4 -8 13 12 57 22 47 4 -3 7 -20 8 -36z"/>
<path d="M492 1244 c-78 -69 -142 -130 -142 -135 0 -6 -3 -8 -8 -6 -4 3 -34
-20 -68 -51 -33 -32 -53 -51 -44 -45 12 10 19 10 28 1 9 -9 24 1 62 39 27 28
50 48 50 45 0 -3 16 9 35 28 26 26 32 37 24 47 -13 15 2 18 17 4 14 -15 155
116 147 136 -4 10 -2 14 4 10 5 -4 20 4 32 17 13 13 18 26 13 30 -5 3 -72 -51
-150 -120z m32 -10 c-71 -64 -111 -78 -54 -19 21 21 38 31 49 28 9 -4 13 -2 8
2 -10 11 43 66 56 58 6 -4 -20 -35 -59 -69z m-120 -105 c-15 -15 -31 -26 -36
-23 -5 4 3 19 18 35 15 15 31 26 36 23 5 -4 -3 -19 -18 -35z m-81 -71 c-15
-16 -37 -34 -48 -39 -20 -10 -20 -10 -1 5 11 9 16 16 11 16 -5 0 4 13 20 30
15 16 32 27 37 24 5 -4 -3 -20 -19 -36z"/>
<path d="M1062 1738 c-6 -6 -12 -21 -12 -32 0 -18 1 -18 25 4 14 13 25 28 25
34 0 6 -4 5 -9 -3 -6 -9 -10 -10 -12 -2 -3 9 -8 8 -17 -1z"/>
<path d="M995 1690 c-3 -5 -1 -19 5 -30 10 -19 11 -19 28 -2 14 13 15 20 6 30
-15 14 -31 16 -39 2z"/>
<path d="M1042 1615 c1 -20 8 -41 16 -47 7 -6 12 -7 10 -2 -5 18 23 56 38 50
25 -10 15 3 -16 19 -43 22 -51 19 -48 -20z"/>
<path d="M1700 1548 c0 -7 -7 -26 -15 -41 -8 -15 -17 -45 -21 -65 -4 -20 -10
-42 -15 -47 -4 -6 -4 -39 0 -75 5 -36 6 -71 4 -77 -3 -7 2 -13 10 -13 18 0 30
14 20 24 -14 14 -17 50 -13 141 2 41 3 45 10 25 8 -24 8 -24 9 6 1 17 8 53 16
80 18 59 17 54 5 54 -5 0 -10 -6 -10 -12z"/>
<path d="M1870 1482 c-16 -46 -21 -75 -15 -88 8 -17 9 -17 13 6 2 14 9 28 16
32 8 6 8 8 -1 8 -7 0 -13 8 -13 18 0 12 3 13 8 5 5 -8 12 6 18 37 15 71 1 62
-26 -18z"/>
<path d="M2000 1480 c-8 -5 -18 -6 -22 -4 -5 3 -24 -8 -44 -25 -19 -17 -40
-31 -45 -31 -6 0 -9 -7 -6 -15 4 -8 2 -17 -3 -20 -16 -10 -12 -38 5 -31 8 3
15 1 15 -3 0 -5 -5 -11 -11 -13 -8 -3 -10 -16 -5 -41 4 -21 11 -35 17 -32 5 4
9 1 9 -5 0 -6 5 -8 10 -5 14 8 13 26 -1 22 -6 -1 -14 4 -16 11 -3 6 2 12 11
12 21 0 20 16 -4 50 -14 20 -16 29 -7 32 16 6 61 -48 47 -57 -13 -8 -13 -45 0
-45 5 0 9 -6 8 -12 -4 -20 82 -10 110 12 l23 19 -30 -1 c-17 -1 -31 -4 -31 -8
0 -4 -11 -10 -25 -12 -18 -4 -29 1 -40 18 -19 30 -4 39 23 14 14 -14 23 -16
28 -9 4 7 0 16 -9 21 -36 20 -77 61 -76 76 1 15 2 15 6 0 2 -10 15 -21 29 -24
13 -3 21 -11 17 -17 -3 -6 -1 -7 5 -3 7 4 12 3 12 -3 0 -5 9 -13 20 -16 11 -4
18 -11 15 -16 -3 -5 1 -6 10 -3 14 6 13 10 -7 28 -12 11 -25 21 -28 21 -14 1
-60 39 -60 50 0 17 19 32 51 40 23 6 29 2 47 -36 21 -42 24 -41 36 6 3 11 4 3
3 -17 -3 -36 -2 -37 15 -21 18 16 18 16 12 0 -4 -12 -2 -17 7 -15 8 2 16 10
19 19 4 13 9 9 22 -17 12 -23 14 -35 6 -40 -6 -4 -8 -3 -4 4 3 6 2 13 -4 17
-5 3 -10 -2 -10 -12 0 -10 -6 -25 -13 -34 -22 -29 -89 -69 -116 -69 -35 0 -53
-13 -46 -33 4 -8 2 -24 -4 -35 -8 -15 -6 -23 9 -37 25 -23 25 -35 1 -35 -24 0
-45 25 -35 42 4 7 -1 5 -11 -4 -18 -16 -20 -16 -42 8 -25 27 -29 43 -13 46 29
4 35 1 40 -20 5 -23 6 -22 24 8 18 32 18 32 -1 26 -14 -4 -20 -2 -20 9 0 8 4
15 9 15 4 0 8 4 8 9 0 5 -11 8 -23 7 -17 -1 -23 -6 -19 -18 4 -16 -6 -23 -30
-20 -13 2 -29 -26 -19 -32 18 -11 1 -34 -21 -28 -18 4 -19 3 -9 -17 7 -11 21
-21 33 -21 18 0 15 -6 -23 -44 -25 -24 -45 -54 -46 -66 -4 -50 -65 -69 -71
-22 -4 24 7 29 26 10 9 -9 12 -4 12 23 0 24 10 50 31 79 27 37 29 44 16 57
-12 13 -17 9 -36 -31 -11 -25 -21 -50 -21 -55 0 -12 -76 -74 -85 -70 -4 2 -14
-12 -23 -32 -9 -20 -23 -43 -31 -52 -7 -9 -11 -24 -7 -32 4 -11 2 -14 -6 -9
-8 5 -9 2 -5 -9 3 -10 3 -17 -2 -17 -5 0 -11 -11 -13 -25 -4 -21 -3 -23 13
-14 13 7 19 6 19 -1 0 -6 -8 -13 -17 -17 -10 -3 -126 -50 -259 -105 -133 -54
-248 -96 -256 -93 -9 4 -13 17 -11 38 2 29 2 30 -6 7 -5 -14 -9 -22 -10 -17
-1 4 -14 1 -30 -8 -23 -11 -31 -12 -34 -2 -3 6 -5 0 -4 -16 1 -19 6 -26 15
-22 8 3 16 5 18 5 2 0 4 6 4 14 0 8 7 16 15 20 10 3 15 -1 15 -13 0 -18 -22
-30 -176 -91 -67 -27 -81 -36 -77 -51 6 -23 1 -23 51 1 22 11 50 20 62 20 11
0 20 3 20 8 0 4 15 13 33 20 94 39 112 47 117 52 7 9 523 221 526 217 2 -2 -7
-25 -20 -52 -28 -61 -69 -111 -107 -131 -16 -8 -29 -23 -29 -33 0 -10 -11 -26
-25 -35 -14 -9 -25 -23 -25 -31 0 -8 -5 -15 -10 -15 -9 0 -32 -41 -34 -62 -1
-3 -4 -10 -8 -14 -23 -23 -1 -27 110 -20 156 8 172 12 172 42 0 17 4 22 15 18
16 -6 21 11 6 20 -12 8 -20 66 -9 72 4 3 8 20 8 38 0 29 7 38 60 75 51 36 60
47 60 73 0 16 9 41 20 55 11 14 20 20 20 13 0 -7 8 -10 20 -7 11 3 23 1 26 -4
8 -14 52 -10 129 11 39 11 80 20 93 20 l24 0 -24 29 c-26 33 -67 55 -95 49
-14 -3 -17 -11 -15 -33 5 -39 5 -39 41 -20 17 8 31 13 31 11 0 -10 -61 -37
-69 -31 -5 2 -11 -2 -15 -10 -12 -33 -28 -14 -24 30 3 43 -4 57 -17 35 -4 -7
-13 -7 -25 0 -11 6 -31 8 -45 4 -19 -5 -25 -2 -25 10 0 10 9 16 23 17 21 1 21
1 -3 9 -23 7 -22 8 11 9 20 1 39 -2 43 -6 4 -4 23 -8 42 -9 28 -1 34 3 34 20
0 12 3 16 8 10 9 -14 47 -34 63 -34 8 0 6 6 -4 18 -10 10 -17 27 -17 37 0 20
10 15 14 -7 4 -28 16 -33 73 -30 l58 3 -3 69 c-4 75 10 115 35 105 10 -3 26 4
41 17 l25 23 -8 -45 c-4 -25 -7 -49 -6 -55 0 -5 2 -21 4 -35 2 -25 -17 -49
-41 -50 -9 0 -9 8 4 31 19 38 26 72 13 64 -5 -4 -9 -15 -9 -25 0 -10 -11 -32
-25 -48 -33 -39 -32 -46 7 -38 31 6 31 6 12 -15 -10 -11 -20 -16 -22 -10 -7
20 -20 11 -27 -16 -10 -41 -25 -56 -41 -42 -22 18 -17 47 9 52 12 2 1 5 -25 6
-27 0 -48 -1 -48 -4 0 -13 34 -71 50 -87 13 -12 28 -15 58 -11 33 4 50 0 89
-23 26 -16 55 -30 63 -31 101 -16 113 -16 122 1 7 12 13 14 21 7 8 -6 22 -1
42 16 17 14 24 22 18 19 -15 -8 -17 3 -4 23 8 12 12 12 25 2 8 -7 14 -18 12
-24 -1 -7 -1 -9 1 -4 10 17 19 4 19 -28 0 -29 -4 -37 -23 -41 -12 -3 -27 -12
-34 -20 -17 -21 -27 -17 -45 17 -22 44 -39 24 -30 -35 6 -39 13 -49 49 -73 53
-36 81 -82 68 -115 -6 -16 -5 -37 2 -61 10 -30 20 -40 60 -57 46 -20 193 -44
209 -34 5 3 8 22 8 42 0 28 -9 49 -37 84 -21 26 -61 76 -89 111 -29 35 -55 75
-59 88 -3 13 -12 38 -20 54 -7 17 -14 35 -16 40 -15 40 -59 97 -82 106 -25 11
-31 9 -50 -12 -21 -22 -21 -22 -1 -6 20 17 22 17 35 0 12 -14 12 -16 0 -8 -9
5 -12 4 -7 -3 4 -6 -2 -19 -14 -29 -11 -10 -20 -23 -20 -29 0 -13 -48 -16 -56
-3 -3 5 -1 9 5 9 6 0 16 19 23 41 6 23 19 46 29 52 26 16 -120 90 -167 85 -42
-5 -45 3 -42 123 l3 86 30 -12 c17 -7 43 -18 58 -24 15 -6 30 -18 34 -27 3 -9
16 -26 29 -39 13 -13 30 -48 39 -78 16 -55 34 -79 61 -83 20 -3 84 -44 84 -55
0 -4 7 -5 17 -2 11 4 14 3 9 -5 -5 -8 -1 -10 10 -5 13 5 15 3 9 -7 -6 -9 -4
-11 5 -5 7 4 15 3 19 -3 3 -6 18 -13 33 -17 21 -5 29 -2 39 17 11 21 11 22 -4
9 -21 -17 -21 -9 -2 28 14 28 37 142 29 150 -8 8 -54 -31 -48 -41 4 -7 9 -6
14 2 5 8 9 7 13 -4 4 -9 1 -15 -6 -13 -7 1 -11 -3 -10 -10 1 -6 -4 -14 -12
-17 -8 -3 -15 0 -15 6 0 9 -3 9 -12 0 -18 -18 -32 -14 -17 5 15 17 20 65 7 57
-4 -3 -8 -1 -8 5 0 5 5 13 10 16 6 3 10 11 10 17 0 5 -9 0 -21 -13 -11 -13
-18 -18 -14 -11 4 7 8 24 10 37 2 20 -1 23 -15 15 -13 -7 -22 -4 -33 8 -23 25
-48 88 -39 98 4 5 -2 1 -14 -9 -17 -14 -21 -14 -21 -2 0 8 4 12 9 9 4 -3 8 -3
8 0 0 8 -69 36 -89 36 -9 0 -23 5 -31 10 -13 8 -13 11 -1 22 10 10 12 10 7 1
-4 -7 -2 -13 3 -13 16 0 14 9 -9 37 -27 34 -19 40 15 11 15 -13 31 -24 36 -24
5 -1 14 -2 19 -3 6 0 10 -6 10 -12 0 -5 -4 -7 -10 -4 -5 3 -10 1 -10 -4 0 -6
9 -11 19 -11 23 0 76 -43 93 -74 10 -19 10 -20 -6 -7 -16 13 -16 12 -5 -13 8
-16 16 -23 22 -17 12 12 68 -20 62 -36 -2 -7 0 -15 5 -18 6 -4 10 -15 10 -26
0 -10 4 -19 10 -19 5 0 8 6 6 13 -1 6 -1 9 1 5 3 -5 11 -8 19 -8 8 0 14 3 14
8 0 4 -48 57 -108 117 -71 74 -129 123 -174 149 -37 21 -65 42 -62 47 3 5 -2
9 -10 9 -18 0 -28 -14 -18 -24 4 -4 7 -11 8 -14 0 -4 4 -19 7 -34 4 -16 9 -40
12 -54 4 -17 11 -24 20 -20 9 3 15 -1 15 -9 0 -9 6 -12 15 -9 10 4 15 0 15
-12 0 -15 2 -16 9 -6 7 12 12 12 30 1 11 -8 21 -17 21 -21 0 -5 6 -8 14 -8 8
0 17 -8 20 -18 3 -9 19 -32 35 -49 32 -35 57 -96 42 -101 -5 -2 -7 -10 -4 -19
3 -8 0 -19 -8 -24 -10 -7 -7 -8 11 -7 19 2 26 -2 28 -19 2 -13 8 -23 14 -23 6
0 8 10 5 23 -5 18 -2 22 18 23 28 2 34 -13 10 -22 -9 -4 -13 -14 -11 -23 3 -9
2 -22 -2 -29 -6 -9 -13 -7 -29 7 -11 11 -23 18 -26 15 -2 -3 -16 1 -30 7 -21
10 -24 15 -17 30 16 28 12 34 -8 11 -14 -16 -22 -18 -30 -10 -7 7 -12 18 -12
25 0 7 -9 13 -21 13 -11 0 -17 5 -14 10 3 6 2 10 -4 10 -6 0 -8 7 -4 16 3 9
-6 28 -23 47 -16 18 -25 29 -21 25 5 -4 24 7 43 24 34 31 45 54 22 45 -7 -2
-12 -10 -10 -16 1 -6 -5 -11 -13 -11 -9 0 -18 -6 -21 -13 -6 -16 -41 -20 -50
-5 -3 5 -1 15 6 21 10 9 11 9 6 0 -4 -7 -4 -13 1 -13 13 1 53 37 53 49 0 15
-6 14 -34 -5 -23 -14 -25 -14 -31 6 -4 14 -12 19 -22 16 -21 -9 -64 4 -56 17
4 6 0 8 -10 4 -13 -5 -17 -1 -18 16 -1 18 -2 19 -6 4 -4 -15 -11 -17 -31 -12
-31 8 -62 33 -62 51 0 9 21 11 82 8 78 -3 80 -3 57 13 -13 9 -40 31 -60 48
-35 32 -35 32 -17 55 10 12 18 31 18 41 0 16 -3 18 -19 9 -28 -15 -35 -12 -16
6 9 9 13 19 10 22 -3 4 -10 0 -15 -7 -4 -8 -17 -12 -29 -8 -12 3 -24 1 -27 -4
-3 -5 -10 -6 -16 -3 -6 4 -8 -1 -3 -15 9 -31 -2 -26 -20 9 -10 18 -23 30 -36
30 -11 0 -17 5 -14 10 3 6 4 10 0 10 -3 0 -10 -10 -16 -22 l-10 -23 5 24 c6
30 -11 47 -49 45 -16 0 -32 3 -35 7 -3 4 -12 4 -20 -1z m266 -119 c-12 -12
-19 -12 -28 -3 -8 8 -15 9 -25 0 -11 -8 -12 -7 -7 5 4 11 17 16 40 15 32 -1
33 -3 20 -17z m-25 -31 c6 0 7 -4 4 -10 -3 -5 0 -7 7 -5 8 3 22 -2 33 -11 11
-8 13 -12 5 -9 -8 4 -1 -5 15 -19 26 -24 27 -26 8 -21 -13 4 -23 3 -23 -2 0
-4 -24 -7 -53 -5 -44 3 -54 1 -54 -12 0 -9 8 -18 18 -21 19 -6 19 -29 -2 -66
-11 -22 -12 -22 -25 -4 -11 15 -17 16 -26 7 -10 -10 -10 -15 1 -21 20 -13 -52
-34 -89 -26 -32 7 -39 14 -45 44 -3 15 1 18 18 14 18 -4 19 -3 7 6 -9 6 -10
11 -3 11 6 0 18 3 27 6 11 4 16 0 17 -12 0 -14 2 -15 6 -4 10 23 28 38 57 46
23 5 37 24 19 24 -5 0 -14 4 -21 9 -22 13 5 59 39 66 18 4 26 11 22 18 -4 7 0
8 11 4 10 -4 22 -7 27 -7z m-20 -206 c-5 -19 -14 -29 -27 -30 -45 -2 -54 -4
-53 -11 5 -31 -2 -36 -50 -30 -26 3 -52 2 -58 -4 -11 -11 -56 18 -48 32 4 5
15 9 26 9 11 0 18 -4 14 -9 -3 -5 -1 -12 5 -16 5 -3 10 1 10 9 0 11 8 13 35 9
39 -6 109 23 98 40 -3 6 -1 7 4 4 6 -4 18 2 28 13 23 25 26 22 16 -16z m-238
-87 c11 -22 17 -47 13 -61 -5 -22 -11 -24 -63 -22 -32 0 -77 -2 -99 -6 -58
-11 -63 9 -15 64 21 24 43 53 50 66 7 12 16 20 22 17 5 -4 9 -1 9 5 0 23 63
-25 83 -63z m75 -34 c4 -29 -23 -31 -38 -4 -15 28 -13 33 13 29 14 -2 23 -11
25 -25z m80 15 c-11 -33 -68 -36 -68 -3 0 11 10 15 36 15 23 0 34 -4 32 -12z
m-433 -58 c10 -11 28 -20 39 -20 17 0 18 -2 6 -10 -16 -10 -66 15 -74 37 -8
20 9 16 29 -7z m435 -4 c0 -33 -17 -42 -41 -20 -22 20 -25 39 -4 31 8 -4 17
-2 20 3 11 18 25 10 25 -14z m-72 -14 c2 -12 -1 -22 -6 -22 -15 0 -34 28 -27
40 10 17 30 6 33 -18z m-379 -2 c4 0 8 -7 8 -15 0 -19 -14 -19 -33 -1 -19 19
-18 30 2 22 9 -3 19 -6 23 -6z m676 -13 c7 -7 6 -8 -2 -3 -7 4 -13 2 -13 -3 0
-6 -7 -11 -17 -11 -26 0 -8 -11 23 -14 16 -2 32 1 35 7 4 6 16 4 30 -7 13 -9
17 -16 10 -16 -11 0 -11 -3 -1 -15 11 -13 10 -14 -6 -8 -15 5 -17 4 -8 -8 5
-8 9 -20 8 -26 -1 -7 -2 -18 -3 -24 -1 -8 -6 -7 -17 2 -14 12 -14 14 2 26 10
7 13 13 7 13 -7 0 -15 -4 -18 -10 -3 -5 -11 -10 -16 -10 -6 0 -8 4 -5 9 3 4
-6 6 -19 3 -30 -5 -78 6 -71 17 3 4 -6 6 -21 3 -23 -4 -25 -2 -21 22 6 28 -1
33 -20 14 -9 -9 -12 -9 -12 -1 0 16 43 29 48 14 2 -6 8 -11 13 -11 6 0 5 8 -1
20 -10 18 -8 20 22 21 28 0 30 2 13 10 -15 7 -11 7 15 3 19 -3 40 -11 45 -17z
m-485 3 c0 -5 -14 -10 -31 -10 -17 0 -28 4 -24 10 3 6 17 10 31 10 13 0 24 -4
24 -10z m-85 -65 c7 -39 6 -50 -5 -53 -8 -3 -24 -15 -37 -28 -17 -17 -32 -22
-61 -20 -68 6 -83 14 -76 43 5 20 4 24 -6 18 -9 -5 -11 -4 -6 4 4 6 11 9 15 7
4 -3 16 9 26 26 16 28 18 29 28 12 6 -11 17 -25 24 -32 7 -8 18 -22 23 -33 9
-16 7 -19 -15 -19 -15 0 -24 4 -21 9 4 5 -2 8 -11 7 -9 -2 -19 -8 -21 -15 -3
-9 8 -11 39 -9 40 3 44 5 41 28 -1 14 -7 26 -12 28 -5 2 -6 10 -3 19 5 12 3
14 -7 8 -10 -6 -12 -4 -6 10 5 15 4 16 -9 5 -12 -10 -15 -10 -15 3 0 18 21 28
50 22 11 -2 20 0 20 5 0 4 8 7 18 6 12 -2 20 -17 27 -51z m489 -37 c3 -7 7
-29 10 -48 l6 -35 -20 24 c-21 24 -27 71 -10 71 6 0 12 -6 14 -12z m-618 -103
c4 -16 13 -25 25 -25 32 0 21 -25 -27 -66 -34 -30 -44 -45 -42 -64 3 -29 -32
-84 -64 -101 -15 -8 -24 -7 -37 5 -10 9 -20 15 -22 14 -2 -2 -3 -1 -2 1 1 2
-5 20 -13 40 -15 35 -14 36 13 56 15 11 39 30 52 43 l24 24 -7 -44 c-4 -29 -3
-38 3 -28 6 8 14 40 18 70 l7 55 7 -45 6 -45 2 40 c2 32 4 36 11 20 6 -15 9
-8 9 28 1 34 5 47 16 47 8 0 17 -11 21 -25z m68 -1 c5 -12 0 -15 -21 -12 -14
2 -28 9 -31 16 -6 18 45 15 52 -4z m838 -59 c-3 -5 1 -5 9 2 11 9 20 8 39 -7
14 -11 19 -20 11 -20 -7 0 8 -20 34 -44 42 -40 44 -45 26 -51 -11 -3 -32 -26
-48 -51 -31 -49 -65 -57 -71 -17 -3 17 0 21 12 17 13 -5 16 4 17 52 1 33 1 63
0 67 -3 19 22 -8 35 -37 7 -17 13 -26 14 -19 0 7 7 10 18 6 10 -3 3 8 -17 28
-18 18 -38 45 -45 59 -9 22 -11 16 -14 -45 -4 -99 -8 -107 -38 -58 -13 23 -40
51 -60 63 -30 19 -42 32 -24 27 3 -1 18 6 33 16 l27 17 1 -27 c2 -22 3 -20 9
12 l7 40 2 -50 c2 -57 14 -87 25 -60 3 9 5 29 5 43 -1 27 -1 27 -9 -3 -6 -25
-8 -21 -9 25 0 37 2 50 8 40 6 -8 7 -19 3 -25z m-1097 -175 c5 -17 52 -41 84
-44 8 0 16 -6 18 -11 5 -16 -37 -16 -43 0 -6 15 -31 9 -51 -11 -20 -19 -16
-24 19 -24 64 0 20 -9 -67 -14 -50 -2 -72 -1 -50 2 l40 7 -33 8 c-18 4 -31 11
-27 16 3 6 17 4 33 -5 31 -16 42 -18 42 -6 0 4 -14 13 -31 19 -28 11 -33 33
-8 33 6 0 7 -4 4 -10 -3 -6 1 -7 9 -4 9 3 16 1 16 -5 0 -6 12 -11 28 -11 24 1
25 2 8 12 -10 6 -29 20 -42 31 l-23 20 22 17 c24 20 42 13 52 -20z m1270 10
c10 -16 -7 -12 -29 8 -14 11 -17 12 -9 2 15 -19 11 -52 -7 -58 -7 -3 -10 0 -6
6 3 6 2 13 -3 17 -6 3 -8 -3 -6 -15 4 -23 -34 -54 -60 -48 -12 2 -8 13 20 53
19 27 41 52 47 56 13 8 43 -4 53 -21z m15 -36 c0 -9 5 -12 13 -8 6 4 9 4 5 -1
-5 -5 0 -14 10 -20 10 -8 17 -26 17 -46 0 -34 0 -34 -50 -35 l-50 -1 48 4 c48
4 56 10 36 30 -8 8 -20 7 -45 -3 -41 -17 -45 -17 -38 0 4 10 -2 12 -20 9 -35
-7 -33 0 10 32 32 25 37 26 51 12 14 -13 13 -16 -6 -22 -11 -3 -21 -10 -21
-14 0 -5 15 -1 34 8 25 12 29 17 17 23 -9 3 -24 16 -33 27 -17 20 -17 21 2 21
11 0 20 -7 20 -16z"/>
<path d="M2161 1271 c-20 -13 9 -21 32 -9 10 5 28 6 40 3 17 -5 19 -4 7 4 -18
13 -60 14 -79 2z"/>
<path d="M2310 886 l25 -16 -35 7 c-19 3 -32 3 -28 -1 3 -5 22 -9 41 -11 24
-2 34 1 34 11 0 8 -6 14 -13 14 -7 0 -21 3 -31 6 -10 3 -7 -1 7 -10z"/>
<path d="M1540 599 c0 -5 -4 -8 -9 -4 -13 7 -31 -27 -31 -57 0 -28 16 -55 26
-45 4 4 2 13 -4 19 -15 15 -15 48 -1 68 9 12 10 10 6 -8 -3 -13 -3 -30 0 -38
10 -27 18 -14 18 31 0 25 -1 45 -2 45 -2 0 -3 -5 -3 -11z"/>
<path d="M2614 538 c0 -32 3 -58 7 -58 13 0 15 36 4 75 l-12 40 1 -57z"/>
<path d="M1973 1433 c-19 -7 18 -43 45 -43 13 0 21 -4 17 -10 -3 -5 3 -18 15
-30 11 -11 20 -25 20 -31 0 -8 4 -9 13 0 8 6 17 8 20 4 4 -3 7 7 7 23 -1 27
-2 28 -15 10 -13 -17 -15 -17 -29 -3 -9 9 -16 22 -16 29 -1 34 -43 62 -77 51z"/>
<path d="M944 1411 c-10 -10 -3 -23 11 -18 8 4 17 2 20 -4 8 -12 25 -2 25 16
0 14 -44 18 -56 6z"/>
<path d="M1832 1330 c-7 -30 -11 -64 -10 -75 2 -16 -4 -21 -30 -23 -41 -4 -88
39 -102 95 l-10 38 5 -43 c3 -24 13 -54 23 -67 22 -29 66 -48 92 -40 19 6 20
5 9 -13 -7 -12 -17 -19 -21 -16 -4 3 -17 0 -28 -6 -16 -8 -20 -8 -20 3 0 8
-11 22 -25 31 -15 10 -25 12 -25 6 0 -6 -4 -8 -10 -5 -5 3 -10 1 -10 -4 0 -6
9 -11 19 -11 24 0 36 -16 20 -26 -8 -4 -9 -3 -5 4 4 7 2 12 -4 12 -7 0 -10 -6
-7 -12 2 -7 12 -12 21 -12 13 2 14 -1 5 -12 -7 -8 -7 -14 -1 -14 5 0 15 7 22
15 15 18 42 19 58 3 9 -9 13 -7 18 7 4 10 20 30 35 44 23 23 25 29 14 44 -10
14 -14 15 -18 5 -4 -9 -6 -9 -6 -1 -1 6 6 18 14 26 8 8 11 17 8 21 -3 3 -9 23
-12 43 l-6 38 -13 -55z"/>
<path d="M805 1310 c10 -11 24 -19 31 -16 7 3 11 0 9 -7 -6 -15 42 -50 56 -41
7 4 -2 13 -20 21 -16 8 -29 19 -28 25 1 5 -13 16 -32 24 l-35 15 19 -21z"/>
<path d="M880 1322 c0 -11 38 -42 52 -42 5 0 8 5 8 10 0 6 -5 10 -12 10 -6 0
-20 7 -30 17 -10 9 -18 11 -18 5z"/>
<path d="M2450 1314 c69 -30 140 -86 224 -177 47 -52 92 -107 101 -123 8 -16
15 -22 15 -13 0 22 -59 111 -69 104 -5 -3 -12 -1 -16 5 -3 5 0 10 7 10 19 0
-79 96 -147 144 -55 40 -112 67 -139 66 -6 -1 5 -8 24 -16z"/>
<path d="M636 1218 c-18 -29 -18 -31 -1 -25 13 5 16 3 11 -8 -3 -8 -1 -15 4
-15 13 0 21 16 12 24 -12 12 -8 30 8 43 13 11 13 12 0 13 -9 0 -24 -14 -34
-32z"/>
<path d="M647 1140 c-7 -27 16 -55 66 -81 47 -24 49 -7 2 23 -19 13 -41 36
-48 51 -14 27 -15 27 -20 7z"/>
<path d="M1177 1093 c-15 -15 -27 -22 -27 -15 0 6 -5 12 -11 12 -6 0 -9 -6 -6
-14 3 -7 0 -19 -6 -25 -8 -8 -7 -11 6 -11 17 0 51 32 68 63 13 24 8 21 -24
-10z"/>
<path d="M440 1080 c0 -13 7 -20 20 -20 23 0 26 10 8 28 -18 18 -28 15 -28 -8z"/>
<path d="M2523 1061 c-4 -9 -9 -20 -11 -26 -3 -5 2 -4 11 4 9 7 14 18 10 24
-3 6 -1 7 5 3 6 -4 9 -13 5 -21 -3 -8 -1 -15 4 -15 5 0 10 11 11 23 2 27 -26
33 -35 8z"/>
<path d="M592 1047 c-17 -20 -9 -75 15 -98 19 -20 20 -20 17 37 -3 62 -14 83
-32 61z"/>
<path d="M2584 1026 c-3 -7 -18 -12 -34 -11 -19 1 -30 -3 -30 -12 0 -15 16
-17 25 -3 4 6 10 8 15 5 5 -3 21 0 36 8 22 12 24 15 10 20 -10 4 -19 1 -22 -7z"/>
<path d="M492 1019 c-9 -4 -20 -5 -24 -3 -3 2 -4 -6 0 -18 3 -12 1 -19 -4 -15
-19 11 -7 -74 12 -88 17 -12 12 -13 -34 -12 -47 2 -51 4 -46 22 4 11 12 27 18
35 7 8 17 28 24 43 11 25 10 28 -5 25 -11 -2 -25 -22 -35 -53 -29 -81 -22
-104 27 -85 24 9 26 8 23 -12 -2 -13 -8 -23 -15 -23 -7 0 -18 -6 -25 -12 -6
-7 -8 -13 -3 -13 4 0 0 -9 -10 -20 -10 -11 -24 -20 -32 -20 -15 0 -113 -70
-113 -82 0 -4 -25 -42 -56 -85 -31 -43 -60 -88 -65 -100 -4 -12 -14 -25 -21
-30 -7 -4 -22 -19 -33 -32 -18 -22 -18 -24 -2 -18 11 4 16 3 12 -3 -4 -6 -12
-10 -18 -9 -26 3 -37 -2 -37 -16 0 -10 10 -15 29 -15 22 0 32 6 37 23 5 12 7
25 6 30 -1 4 3 7 9 7 5 0 7 5 4 10 -3 6 3 10 14 10 12 0 20 6 19 13 -2 6 3 11
11 9 12 -3 12 -1 0 14 -11 15 -11 16 0 10 9 -6 12 -5 9 5 -8 23 111 159 139
159 9 0 11 -5 7 -12 -6 -10 -3 -9 9 0 18 15 59 13 64 -4 2 -7 -13 -22 -33 -35
-21 -12 -64 -45 -96 -71 -32 -27 -58 -44 -58 -38 0 5 -5 10 -11 10 -6 0 -8 -9
-5 -20 3 -11 9 -30 12 -42 6 -20 5 -21 -8 -10 -13 10 -17 10 -22 -3 -3 -9 -10
-13 -16 -10 -5 3 -10 2 -10 -4 0 -5 5 -13 10 -16 18 -11 10 -24 -18 -28 -20
-4 -18 -4 8 -3 19 0 33 5 30 9 -3 5 3 13 12 18 9 5 22 26 29 47 6 20 19 46 28
56 15 17 142 117 180 141 19 13 94 85 88 85 -3 0 -18 -7 -33 -15 -56 -29 -87
-13 -38 20 l26 17 -23 24 c-12 13 -20 26 -17 29 3 3 11 -1 18 -10 15 -18 32
-19 48 -3 9 9 7 17 -10 35 -27 29 -17 29 27 1 21 -14 33 -29 30 -37 -4 -11 -3
-11 9 -1 9 6 15 15 14 18 -4 13 14 52 23 52 16 0 10 -39 -10 -59 -10 -10 -21
-25 -23 -32 -3 -8 -17 -13 -36 -11 -36 3 -44 -13 -11 -21 16 -4 42 11 101 58
98 76 142 87 226 55 31 -12 76 -20 113 -20 54 0 60 2 54 18 -14 31 -22 103
-13 108 14 9 86 -6 98 -21 8 -9 4 -17 -14 -29 -32 -20 -38 -20 -34 2 1 9 -2
17 -7 17 -6 0 -9 -7 -8 -15 1 -8 -2 -32 -7 -53 l-8 -38 32 37 c24 28 40 37 69
39 20 2 37 -1 37 -6 0 -5 -4 -9 -10 -9 -5 0 -10 -5 -10 -11 0 -6 7 -9 15 -5
22 8 18 -17 -5 -34 -13 -9 -16 -16 -8 -21 6 -4 7 -12 3 -19 -6 -9 -9 -9 -15 0
-5 8 -9 7 -13 -5 -4 -9 -3 -13 3 -10 13 8 13 -1 -1 -28 -7 -15 -2 -12 15 8 14
17 25 38 26 47 0 9 5 20 11 24 6 4 8 20 4 40 -3 21 -2 34 5 34 5 0 10 8 10 18
-1 15 -2 15 -13 2 -7 -8 -21 -16 -32 -17 -30 -3 -33 52 -5 69 30 19 25 25 -22
28 -75 3 -82 2 -142 -10 -32 -6 -69 -9 -82 -6 -14 4 -24 2 -24 -4 0 -6 -5 -8
-11 -4 -6 3 -15 0 -20 -7 -13 -20 -11 -25 10 -26 40 -3 91 -32 91 -52 0 -45
-30 -70 -44 -36 -3 9 -18 15 -35 15 -16 0 -33 5 -36 10 -3 6 4 10 17 10 13 0
30 5 38 10 13 8 13 10 -2 10 -9 0 -18 6 -21 13 -6 16 -42 -4 -42 -23 0 -7 -6
-15 -13 -18 -9 -3 -11 3 -6 22 l6 27 -38 -23 c-21 -12 -34 -17 -30 -10 4 7 3
19 -3 26 -8 10 -7 17 6 27 15 12 16 12 10 -3 -8 -23 16 -24 34 -1 12 15 12 16
-3 10 -12 -4 -18 -2 -18 7 0 8 -7 16 -15 20 -9 3 -15 0 -15 -8 0 -15 -28 -31
-61 -35 -5 0 -7 -6 -4 -11 6 -10 -33 -30 -70 -35 -11 -2 -32 -6 -46 -10 -37
-9 -78 32 -49 50 6 3 10 14 10 24 0 9 7 26 16 37 14 18 15 16 11 -23 -5 -43
13 -87 27 -65 3 6 -1 15 -10 20 -15 8 -15 10 0 15 9 4 16 17 16 30 0 13 4 27
10 33 10 10 -40 13 -68 3z m436 -49 c2 -2 9 -5 27 -9 3 0 1 -10 -5 -21 -6 -11
-16 -17 -25 -14 -8 4 -12 10 -10 15 3 5 -6 11 -20 15 -33 8 -32 20 3 18 15 -1
28 -3 30 -4z m-228 -52 c0 -20 -53 -78 -72 -78 -4 0 -8 11 -8 24 0 16 12 34
33 50 39 31 47 32 47 4z m267 5 c-3 -10 -8 -30 -11 -45 -4 -16 -10 -28 -15
-28 -4 0 -2 20 7 45 14 43 29 64 19 28z m-583 -190 c11 -15 20 -33 18 -40 -2
-7 2 -13 8 -13 5 0 10 5 10 10 0 6 8 10 17 10 15 0 16 -2 2 -15 -22 -23 -82
-9 -74 16 5 14 2 17 -8 13 -11 -4 -15 2 -13 20 1 33 13 33 40 -1z m-48 -55
c-12 -8 -36 18 -36 39 0 9 8 5 23 -9 16 -15 20 -25 13 -30z"/>
<path d="M2580 978 c-7 -18 -9 -19 -9 -5 -1 15 -4 16 -22 6 -27 -14 -14 -27
35 -33 37 -5 38 -4 32 20 -5 19 -3 24 5 18 8 -4 9 -3 5 4 -12 19 -36 14 -46
-10z"/>
<path d="M1053 864 c-20 -21 -16 -24 27 -24 22 0 40 5 40 10 0 6 -7 10 -16 10
-8 0 -13 4 -10 8 8 14 -28 11 -41 -4z"/>
<path d="M1009 823 c-1 -4 -2 -32 -3 -60 -1 -70 21 -71 52 -1 12 28 21 52 20
53 -10 8 -68 15 -69 8z"/>
<path d="M660 785 c-14 -7 -24 -17 -23 -22 2 -12 -28 -43 -38 -38 -4 3 -11 0
-15 -6 -5 -8 -2 -10 7 -5 8 4 6 1 -3 -7 -10 -8 -15 -17 -11 -20 3 -4 1 -7 -5
-7 -7 0 -11 -3 -11 -7 3 -21 -2 -44 -9 -39 -5 3 -6 -8 -4 -25 3 -17 0 -29 -7
-29 -6 0 -11 -5 -11 -11 0 -5 5 -7 11 -4 7 5 8 -5 4 -29 -8 -41 9 -51 19 -12
3 14 17 38 32 55 14 16 25 34 25 38 0 4 8 8 19 7 10 0 17 3 14 8 -3 4 8 8 25
8 34 0 91 -43 91 -68 -1 -12 -5 -9 -15 9 -8 15 -21 29 -30 33 -11 4 -9 -3 7
-24 13 -18 22 -45 22 -65 0 -19 5 -36 11 -38 15 -6 55 10 55 22 0 6 7 7 17 4
11 -4 14 -3 9 6 -5 8 -3 12 5 10 26 -3 40 1 35 10 -4 5 0 12 6 15 10 5 10 7 1
12 -22 10 -14 42 17 64 17 12 52 23 82 26 84 8 98 13 125 42 l25 27 -13 -27
c-6 -15 -21 -30 -31 -34 -11 -3 -18 -8 -15 -10 11 -11 40 12 58 47 16 32 17
39 5 39 -8 0 -22 -7 -30 -15 -29 -30 -178 -32 -160 -3 4 6 3 8 -4 4 -21 -13
-24 16 -3 30 32 23 26 37 -11 29 -18 -4 -37 -11 -43 -16 -5 -5 -16 -9 -25 -8
-11 0 -11 2 3 8 10 4 -30 7 -90 6 -59 0 -117 -4 -128 -8 -20 -9 -20 -9 0 4 11
7 38 16 60 20 l40 6 -35 1 c-19 1 -46 -5 -60 -13z m213 -39 c20 -1 37 -6 37
-12 0 -19 35 -43 76 -52 l39 -8 -50 -6 c-80 -10 -104 -25 -111 -69 -5 -32 -8
-36 -20 -24 -8 7 -13 22 -12 32 3 41 -4 54 -43 73 -23 11 -46 17 -50 14 -13
-7 -11 -34 2 -34 5 0 7 5 4 10 -10 16 21 12 35 -5 7 -8 16 -12 21 -9 15 9 10
-8 -8 -28 -22 -25 -8 -36 17 -13 25 23 26 5 1 -23 -18 -21 -38 -31 -27 -14 3
5 -7 23 -22 41 -21 26 -37 34 -72 38 -39 4 -51 0 -86 -25 l-42 -31 16 40 c34
86 96 123 192 113 36 -4 82 -7 103 -8z m-29 -192 c3 -8 -4 -19 -16 -25 -18
-10 -20 -9 -15 5 4 9 2 16 -2 16 -5 0 -12 -6 -14 -12 -4 -9 -6 -8 -6 3 -2 35
40 46 53 13z"/>
<path d="M780 740 c0 -6 -11 -8 -25 -4 -19 5 -25 2 -25 -10 0 -9 -5 -16 -12
-16 -6 0 -8 -3 -5 -6 4 -4 13 -1 22 6 8 7 22 10 30 6 8 -3 15 -1 15 5 0 6 4 7
10 4 6 -3 7 1 4 9 -7 18 -14 21 -14 6z"/>
<path d="M847 692 c-22 -24 -13 -32 23 -22 16 5 37 7 47 6 10 -2 12 -1 5 1 -7
3 -9 9 -6 15 4 7 2 8 -4 4 -24 -15 -51 -15 -45 0 7 19 -1 18 -20 -4z"/>
<path d="M1227 736 c-26 -40 4 -64 36 -28 22 24 21 39 -3 45 -12 3 -24 -2 -33
-17z"/>
<path d="M2505 750 c-6 -9 -4 -11 5 -5 8 5 11 3 8 -6 -3 -8 -12 -13 -20 -11
-8 1 -15 -5 -15 -13 0 -8 1 -15 2 -15 8 0 65 33 65 37 0 4 -3 3 -7 0 -3 -4
-11 1 -18 10 -9 13 -14 13 -20 3z"/>
<path d="M968 633 c-30 -35 -37 -57 -23 -76 12 -16 13 -16 18 3 3 13 1 18 -6
13 -7 -4 -8 0 -4 11 4 10 7 22 7 27 0 6 8 9 17 7 10 -2 19 4 21 15 2 9 -1 17
-6 17 -5 0 -16 -8 -24 -17z"/>
<path d="M654 599 c-3 -6 -1 -16 5 -22 9 -9 14 -8 21 3 9 15 4 30 -10 30 -5 0
-12 -5 -16 -11z"/>
<path d="M1185 543 c39 -10 36 -20 -4 -13 -27 5 -38 4 -34 -3 4 -6 0 -8 -11
-4 -11 5 -15 3 -10 -5 5 -8 2 -9 -9 -5 -9 3 -19 1 -23 -5 -5 -7 -2 -8 6 -3 8
5 11 4 6 -3 -9 -15 -36 -3 -37 17 0 10 -2 12 -6 3 -3 -7 1 -20 8 -28 7 -8 8
-14 3 -13 -5 1 -31 -7 -57 -19 -59 -27 -63 -27 -76 -4 -6 9 -11 12 -11 6 0
-25 29 -38 58 -25 25 10 26 10 8 -4 -28 -21 -63 -19 -71 5 -3 11 -11 20 -16
20 -16 0 -10 -29 11 -50 16 -16 24 -18 51 -8 17 6 53 26 81 44 62 42 67 42 29
2 -33 -36 -36 -43 -21 -53 15 -9 12 -22 -4 -22 -8 0 -15 3 -14 6 2 20 -4 31
-17 31 -8 0 -15 -5 -15 -12 0 -6 -3 -8 -6 -5 -4 3 -16 1 -28 -5 -34 -19 -45
-18 -65 8 -10 13 -21 20 -25 17 -12 -12 -6 -24 17 -33 17 -7 12 -9 -29 -9 -49
-1 -51 0 -46 24 2 14 8 23 12 20 4 -3 10 2 14 10 3 8 2 15 -2 15 -17 -1 -36
-20 -39 -41 -5 -34 -13 -36 -14 -3 0 27 -1 28 -9 7 -8 -20 -17 -23 -60 -23
-27 0 -50 -4 -50 -9 0 -5 9 -7 20 -4 11 3 46 2 77 -2 44 -6 53 -9 38 -16 -16
-6 -17 -8 -3 -8 9 -1 20 3 23 9 3 5 33 9 65 7 33 -1 60 0 60 3 0 3 38 5 85 5
47 0 85 3 85 6 0 4 21 11 48 17 l47 10 -43 1 c-26 1 -41 5 -37 11 3 6 -4 10
-17 10 -16 0 -19 -3 -10 -9 10 -6 9 -11 -4 -22 -12 -9 -15 -10 -10 -1 4 7 1
15 -9 18 -14 6 -12 11 11 35 15 16 32 26 37 22 6 -3 7 -2 4 4 -3 5 8 20 25 33
17 12 28 18 24 11 -5 -8 0 -8 19 1 34 15 27 33 -16 35 -19 1 -25 -1 -14 -4z"/>
<path d="M1013 508 c-26 -13 -29 -23 -9 -31 8 -3 18 5 25 19 6 13 10 24 8 23
-1 0 -12 -5 -24 -11z"/>
<path d="M723 473 c-7 -2 -13 -10 -13 -16 0 -7 -33 -26 -72 -43 -84 -36 -105
-61 -33 -40 25 8 52 19 59 25 8 7 32 9 57 6 24 -3 40 -3 37 1 -4 3 -1 13 7 20
20 20 9 43 -18 37 -18 -4 -19 -3 -7 6 15 11 5 13 -17 4z"/>
</g>
</svg>
